<svg width="223" height="209" viewBox="0 0 223 209" fill="none" xmlns="http://www.w3.org/2000/svg">
<rect width="223" height="209" fill="#E5E5E5"/>
<rect y="24" width="223" height="185" fill="#EF0ED9"/>
<path d="M115 57L131.839 97.077L186.329 97.077L142.245 121.846L159.084 161.923L115 137.154L70.9161 161.923L87.7547 121.846L43.6708 97.077L98.1614 97.077L115 57Z" fill="#F8E113"/>
<path d="M100.656 5.32617V6.39941H95.2695V5.32617H100.656ZM95.4746 1.04688V11H94.1553V1.04688H95.4746ZM101.805 1.04688V11H100.492V1.04688H101.805ZM110.473 9.92676V11H105.202V9.92676H110.473ZM105.469 1.04688V11H104.149V1.04688H105.469ZM109.775 5.32617V6.39941H105.202V5.32617H109.775ZM110.404 1.04688V2.12695H105.202V1.04688H110.404ZM118.143 9.92676V11H113.166V9.92676H118.143ZM113.426 1.04688V11H112.106V1.04688H113.426ZM125.689 9.92676V11H120.713V9.92676H125.689ZM120.973 1.04688V11H119.653V1.04688H120.973ZM134.412 5.70898V6.33789C134.412 7.08529 134.319 7.75521 134.132 8.34766C133.945 8.9401 133.676 9.44368 133.325 9.8584C132.974 10.2731 132.553 10.5898 132.061 10.8086C131.573 11.0273 131.026 11.1367 130.42 11.1367C129.832 11.1367 129.292 11.0273 128.8 10.8086C128.312 10.5898 127.888 10.2731 127.528 9.8584C127.173 9.44368 126.897 8.9401 126.701 8.34766C126.505 7.75521 126.407 7.08529 126.407 6.33789V5.70898C126.407 4.96159 126.503 4.29395 126.694 3.70605C126.89 3.11361 127.166 2.61003 127.521 2.19531C127.877 1.77604 128.299 1.45703 128.786 1.23828C129.278 1.01953 129.818 0.910156 130.406 0.910156C131.012 0.910156 131.559 1.01953 132.047 1.23828C132.539 1.45703 132.961 1.77604 133.312 2.19531C133.667 2.61003 133.938 3.11361 134.125 3.70605C134.316 4.29395 134.412 4.96159 134.412 5.70898ZM133.106 6.33789V5.69531C133.106 5.10286 133.045 4.57878 132.922 4.12305C132.803 3.66732 132.628 3.28451 132.396 2.97461C132.163 2.66471 131.878 2.43001 131.541 2.27051C131.208 2.111 130.83 2.03125 130.406 2.03125C129.996 2.03125 129.625 2.111 129.292 2.27051C128.964 2.43001 128.681 2.66471 128.444 2.97461C128.212 3.28451 128.032 3.66732 127.904 4.12305C127.777 4.57878 127.713 5.10286 127.713 5.69531V6.33789C127.713 6.9349 127.777 7.46354 127.904 7.92383C128.032 8.37956 128.214 8.76465 128.451 9.0791C128.693 9.389 128.978 9.6237 129.306 9.7832C129.638 9.94271 130.01 10.0225 130.42 10.0225C130.848 10.0225 131.229 9.94271 131.562 9.7832C131.894 9.6237 132.174 9.389 132.402 9.0791C132.635 8.76465 132.81 8.37956 132.929 7.92383C133.047 7.46354 133.106 6.9349 133.106 6.33789Z" fill="#1A4CFF"/>
</svg>
